<svg id="visual" viewBox="0 0 960 540" width="960" height="540" xmlns="http://www.w3.org/2000/svg" xmlns:xlink="http://www.w3.org/1999/xlink" version="1.1"><path d="M0 44L48 50L96 33L144 12L192 12L240 28L288 28L336 39L384 12L432 55L480 44L528 44L576 50L624 23L672 28L720 17L768 33L816 39L864 28L912 12L960 55L960 0L912 0L864 0L816 0L768 0L720 0L672 0L624 0L576 0L528 0L480 0L432 0L384 0L336 0L288 0L240 0L192 0L144 0L96 0L48 0L0 0Z" fill="#9cecfb"></path><path d="M0 114L48 109L96 98L144 55L192 33L240 66L288 50L336 98L384 82L432 120L480 71L528 66L576 109L624 98L672 87L720 98L768 114L816 93L864 77L912 33L960 125L960 53L912 10L864 26L816 37L768 31L720 15L672 26L624 21L576 48L528 42L480 42L432 53L384 10L336 37L288 26L240 26L192 10L144 10L96 31L48 48L0 42Z" fill="#55cbf8"></path><path d="M0 158L48 147L96 136L144 114L192 93L240 163L288 131L336 212L384 174L432 179L480 179L528 125L576 190L624 179L672 136L720 158L768 179L816 179L864 136L912 120L960 201L960 123L912 31L864 75L816 91L768 112L720 96L672 85L624 96L576 107L528 64L480 69L432 118L384 80L336 96L288 48L240 64L192 31L144 53L96 96L48 107L0 112Z" fill="#00a7f5"></path><path d="M0 174L48 158L96 163L144 141L192 109L240 174L288 152L336 222L384 212L432 206L480 195L528 168L576 222L624 217L672 158L720 195L768 222L816 217L864 174L912 152L960 217L960 199L912 118L864 134L816 177L768 177L720 156L672 134L624 177L576 188L528 123L480 177L432 177L384 172L336 210L288 129L240 161L192 91L144 112L96 134L48 145L0 156Z" fill="#007fea"></path><path d="M0 233L48 222L96 212L144 190L192 131L240 222L288 201L336 244L384 228L432 260L480 228L528 201L576 244L624 255L672 185L720 212L768 249L816 260L864 195L912 201L960 260L960 215L912 150L864 172L816 215L768 220L720 193L672 156L624 215L576 220L528 166L480 193L432 204L384 210L336 220L288 150L240 172L192 107L144 139L96 161L48 156L0 172Z" fill="#0052d4"></path><path d="M0 368L48 282L96 390L144 293L192 347L240 320L288 341L336 309L384 336L432 347L480 298L528 357L576 336L624 395L672 309L720 298L768 406L816 336L864 293L912 293L960 336L960 258L912 199L864 193L816 258L768 247L720 210L672 183L624 253L576 242L528 199L480 226L432 258L384 226L336 242L288 199L240 220L192 129L144 188L96 210L48 220L0 231Z" fill="#0052d4"></path><path d="M0 406L48 309L96 406L144 320L192 363L240 357L288 374L336 320L384 347L432 357L480 330L528 395L576 347L624 406L672 347L720 330L768 438L816 374L864 303L912 320L960 363L960 334L912 291L864 291L816 334L768 404L720 296L672 307L624 393L576 334L528 355L480 296L432 345L384 334L336 307L288 339L240 318L192 345L144 291L96 388L48 280L0 366Z" fill="#0052d4"></path><path d="M0 460L48 476L96 449L144 444L192 411L240 449L288 455L336 444L384 471L432 465L480 449L528 438L576 455L624 460L672 444L720 449L768 476L816 487L864 455L912 482L960 444L960 361L912 318L864 301L816 372L768 436L720 328L672 345L624 404L576 345L528 393L480 328L432 355L384 345L336 318L288 372L240 355L192 361L144 318L96 404L48 307L0 404Z" fill="#007fea"></path><path d="M0 492L48 503L96 460L144 471L192 433L240 487L288 487L336 476L384 498L432 482L480 482L528 449L576 476L624 471L672 465L720 487L768 498L816 503L864 492L912 509L960 471L960 442L912 480L864 453L816 485L768 474L720 447L672 442L624 458L576 453L528 436L480 447L432 463L384 469L336 442L288 453L240 447L192 409L144 442L96 447L48 474L0 458Z" fill="#00a7f5"></path><path d="M0 514L48 525L96 492L144 492L192 482L240 498L288 514L336 492L384 525L432 492L480 503L528 492L576 525L624 492L672 498L720 519L768 519L816 514L864 503L912 519L960 482L960 469L912 507L864 490L816 501L768 496L720 485L672 463L624 469L576 474L528 447L480 480L432 480L384 496L336 474L288 485L240 485L192 431L144 469L96 458L48 501L0 490Z" fill="#55cbf8"></path><path d="M0 541L48 541L96 541L144 541L192 541L240 541L288 541L336 541L384 541L432 541L480 541L528 541L576 541L624 541L672 541L720 541L768 541L816 541L864 541L912 541L960 541L960 480L912 517L864 501L816 512L768 517L720 517L672 496L624 490L576 523L528 490L480 501L432 490L384 523L336 490L288 512L240 496L192 480L144 490L96 490L48 523L0 512Z" fill="#9cecfb"></path></svg>